# xmcd
#
# Track frame offsets: 
#        150
#        19425
#        36503
#        59113
#        76472
#        98180
#        116894
#        144228
#        153028
#        176046
#        196387
#
# Disc length: 2849 seconds
#
# Revision: 0
# Processed by: cddbd v1.5.2PL0 Copyright (c) Steve Scherf et al.
# Submitted via: ExactAudioCopy v0.99pb4
#
DISCID=9c0b1f0b
DTITLE=Bob Brozman - Fire In The Mind
DYEAR=2012
DGENRE=Blues
TTITLE0=Breathing The Blues
TTITLE1=Cannibal Stomp
TTITLE2=American House Fire Blues
TTITLE3=Rhythm Is The Thing
TTITLE4=Strange Mind Blues
TTITLE5=Blue Mars Over Sorrento
TTITLE6=Banm Kalou Banm
TTITLE7=Ow! My Uke's On Fire
TTITLE8=Nightmares And Dreams
TTITLE9=Memory Blues
TTITLE10=Lonesome Blues
EXTD=
EXTT0=
EXTT1=
EXTT2=
EXTT3=
EXTT4=
EXTT5=
EXTT6=
EXTT7=
EXTT8=
EXTT9=
EXTT10=
PLAYORDER=
